#!OML:ASF H:\Terrain\Patient Classification 1\Walking\liu\liu.ASF
:FULLY-SPECIFIED
:DEGREES
126
root 8.86427 16.6165 -10.8126 4.92546 3.39903 3.64881
lowerback -4.53866 -1.94146 -4.64088
upperback -0.996461 -2.40565 2.00039
thorax 1.79411 -1.23035 4.52542
lowerneck -23.9086 -2.56721 -10.8607
upperneck 23.0824 -2.21444 9.41239
head 11.7478 -0.731271 4.99653
rclavicle 2.61526e-014 -7.95139e-016
rhumerus -41.4307 12.6038 -89.1884
rradius 27.485
rwrist -5.08659
rhand -29.2602 -25.1577
rfingers 7.12502
rthumb -2.603 -55.1215
lclavicle 2.61526e-014 -7.95139e-016
lhumerus -18.6554 -25.5647 90.7987
lradius 31.1008
lwrist 4.10409
lhand -17.5845 -28.2279
lfingers 7.12502
lthumb 8.67129 1.57402
rfemur -35.9535 0.776353 17.0047
rtibia 33.8825
rfoot -18.4988 -8.60671
rtoes -15.1964
lfemur 1.79688 -0.543172 -27.9401
ltibia 12.1875
lfoot -17.0062 2.37967
ltoes -1.84516
127
root 8.85493 16.6073 -10.6365 4.90848 3.63148 3.87713
lowerback -4.24467 -2.01216 -5.0552
upperback -1.01282 -2.49526 2.02225
thorax 1.64118 -1.27298 4.78638
lowerneck -25.0224 -2.74924 -10.6587
upperneck 23.7407 -2.3755 9.11171
head 12.2314 -0.813656 4.85884
rclavicle -2.23509e-014 -2.38542e-014
rhumerus -41.9286 11.9428 -88.8875
rradius 26.6838
rwrist -4.83858
rhand -29.427 -25.0877
rfingers 7.12502
rthumb -2.76405 -55.0495
lclavicle -2.23509e-014 -2.38542e-014
lhumerus -17.6366 -26.2709 90.3237
lradius 31.5374
lwrist 4.34367
lhand -17.69 -28.4557
lfingers 7.12502
lthumb 8.56947 1.35042
rfemur -36.3334 1.97407 16.1051
rtibia 31.8149
rfoot -19.0487 -9.17867
rtoes -15.1039
lfemur 3.79431 -0.420848 -28.0042
ltibia 9.6834
lfoot -16.0312 2.22204
ltoes -2.78054
128
root 8.87768 16.5936 -10.4243 5.1541 3.36413 3.92604
lowerback -4.82892 -1.88474 -4.81473
upperback -0.915275 -2.30654 1.93737
thorax 2.03338 -1.18959 4.55515
lowerneck -24.2839 -2.766 -11.4379
upperneck 22.8434 -2.39318 10.0191
head 11.767 -0.774313 5.29715
rclavicle -6.36111e-015 1.59028e-014
rhumerus -42.2696 11.1019 -88.4857
rradius 25.9216
rwrist -4.61703
rhand -29.6522 -24.4282
rfingers 7.12502
rthumb -2.98159 -54.3871
lclavicle -6.36111e-015 1.59028e-014
lhumerus -16.4769 -27.1936 89.8216
lradius 32.1347
lwrist 5.50457
lhand -17.5935 -28.1266
lfingers 7.12502
lthumb 8.66266 1.67568
rfemur -37.1809 3.36651 15.2212
rtibia 30.2024
rfoot -19.5487 -9.24751
rtoes -15.373
lfemur 6.50954 0.18109 -28.1586
ltibia 5.49824
lfoot -14.612 2.07306
ltoes -3.44588
129
root 8.88503 16.5799 -10.2285 5.53853 3.42076 4.19298
lowerback -5.40491 -1.93875 -4.95158
upperback -0.838608 -2.34014 1.80609
thorax 2.43898 -1.21905 4.4749
lowerneck -24.3088 -2.79794 -11.5295
upperneck 22.583 -2.45789 10.2744
head 11.6856 -0.774259 5.39066
rclavicle 1.33931e-014 3.97569e-015
rhumerus -42.4857 10.1931 -88.0562
rradius 25.181
rwrist -4.23123
rhand -29.5802 -23.755
rfingers 7.12502
rthumb -2.91203 -53.7149
lclavicle 1.33931e-014 3.97569e-015
lhumerus -15.0237 -26.9547 89.0174
lradius 32.7241
lwrist 6.57319
lhand -16.1459 -27.5776
lfingers 7.12502
lthumb 10.0594 2.16201
rfemur -38.2208 5.07416 13.8176
rtibia 28.8738
rfoot -20.6612 -9.97426
rtoes -15.705
lfemur 9.70426 0.414008 -28.3522
ltibia 1.74931e-014
lfoot -12.47 1.71611
ltoes -2.16468
130
root 8.88619 16.5752 -10.0292 5.80758 3.55263 4.52552
lowerback -5.62988 -2.09336 -5.32243
upperback -0.936599 -2.51288 1.75453
thorax 2.49677 -1.30755 4.61101
lowerneck -24.3586 -2.71034 -11.1682
upperneck 22.4262 -2.33659 9.84597
head 11.6085 -0.73953 5.17534
rclavicle -2.23384e-014 -3.97569e-015
rhumerus -42.7579 9.07575 -87.3468
rradius 24.2568
rwrist -3.17989
rhand -29.2365 -24.1203
rfingers 7.12502
rthumb -2.58012 -54.0845
lclavicle -2.23384e-014 -3.97569e-015
lhumerus -13.9999 -26.0029 88.4473
lradius 33.0704
lwrist 6.55171
lhand -14.9255 -27.1209
lfingers 7.12502
lthumb 11.2366 2.55814
rfemur -39.2021 7.49311 11.9219
rtibia 27.9397
rfoot -22.1764 -11.8293
rtoes -15.7644
lfemur 10.1622 0.581135 -28.5974
ltibia 1.27222e-014
lfoot -12.9288 1.38057
ltoes -1.47747
131
root 8.88654 16.575 -9.82466 5.83817 3.52486 4.70318
lowerback -5.59483 -2.13028 -5.54227
upperback -1.05392 -2.55405 1.81071
thorax 2.37247 -1.32389 4.79392
lowerneck -24.3799 -2.70523 -11.0852
upperneck 22.428 -2.22833 9.38283
head 11.5926 -0.743126 4.99936
rclavicle 2.60656e-014 2.38542e-014
rhumerus -43.1581 7.79221 -86.2947
rradius 23.4519
rwrist -1.69057
rhand -29.6979 -25.0437
rfingers 7.12502
rthumb -3.02573 -55.002
lclavicle 2.60656e-014 2.38542e-014
lhumerus -13.3131 -25.7013 88.2724
lradius 33.2777
lwrist 6.62539
lhand -14.5817 -26.873
lfingers 7.12502
lthumb 11.5682 2.78773
rfemur -40.0649 10.385 9.99174
rtibia 27.2516
rfoot -23.6615 -13.9383
rtoes -13.9365
lfemur 10.8638 0.951604 -28.6901
ltibia 6.99722e-014
lfoot -13.4733 1.12325
ltoes -1.72319
